<mxfile host="app.diagrams.net" modified="2020-11-10T08:46:45.231Z" agent="5.0 (Windows NT 10.0; WOW64) AppleWebKit/537.36 (KHTML, like Gecko) coc_coc_browser/90.0.148 Chrome/84.0.4147.148 Safari/537.36" etag="Qye3yG8-ZHOsgDs78JBO" version="13.8.8" type="github">
  <diagram id="R2lEEEUBdFMjLlhIrx00" name="Page-1">
    <mxGraphModel dx="2228" dy="788" grid="1" gridSize="10" guides="1" tooltips="1" connect="1" arrows="1" fold="1" page="1" pageScale="1" pageWidth="850" pageHeight="1100" math="0" shadow="0" extFonts="Permanent Marker^https://fonts.googleapis.com/css?family=Permanent+Marker">
      <root>
        <mxCell id="0" />
        <mxCell id="1" parent="0" />
        <mxCell id="XCGxaM9_9Gl26f5sVmlS-1" value="Book" style="rounded=0;whiteSpace=wrap;html=1;" vertex="1" parent="1">
          <mxGeometry x="80" y="280" width="120" height="60" as="geometry" />
        </mxCell>
        <mxCell id="XCGxaM9_9Gl26f5sVmlS-2" value="Customer" style="rounded=0;whiteSpace=wrap;html=1;" vertex="1" parent="1">
          <mxGeometry x="560" y="280" width="120" height="60" as="geometry" />
        </mxCell>
        <mxCell id="XCGxaM9_9Gl26f5sVmlS-3" value="Librarian" style="rounded=0;whiteSpace=wrap;html=1;" vertex="1" parent="1">
          <mxGeometry x="330" y="470" width="120" height="60" as="geometry" />
        </mxCell>
        <mxCell id="XCGxaM9_9Gl26f5sVmlS-4" value="manages" style="rhombus;whiteSpace=wrap;html=1;rounded=0;" vertex="1" parent="1">
          <mxGeometry x="100" y="460" width="80" height="80" as="geometry" />
        </mxCell>
        <mxCell id="XCGxaM9_9Gl26f5sVmlS-7" value="" style="endArrow=none;html=1;entryX=0;entryY=0.5;entryDx=0;entryDy=0;exitX=1;exitY=0.5;exitDx=0;exitDy=0;" edge="1" parent="1" source="XCGxaM9_9Gl26f5sVmlS-4" target="XCGxaM9_9Gl26f5sVmlS-3">
          <mxGeometry width="50" height="50" relative="1" as="geometry">
            <mxPoint x="240" y="340" as="sourcePoint" />
            <mxPoint x="290" y="290" as="targetPoint" />
            <Array as="points" />
          </mxGeometry>
        </mxCell>
        <mxCell id="XCGxaM9_9Gl26f5sVmlS-8" value="" style="endArrow=none;html=1;entryX=0.5;entryY=0;entryDx=0;entryDy=0;exitX=0.5;exitY=1;exitDx=0;exitDy=0;" edge="1" parent="1" source="XCGxaM9_9Gl26f5sVmlS-1" target="XCGxaM9_9Gl26f5sVmlS-4">
          <mxGeometry width="50" height="50" relative="1" as="geometry">
            <mxPoint x="240" y="340" as="sourcePoint" />
            <mxPoint x="290" y="290" as="targetPoint" />
          </mxGeometry>
        </mxCell>
        <mxCell id="XCGxaM9_9Gl26f5sVmlS-9" value="1" style="text;html=1;strokeColor=none;fillColor=none;align=center;verticalAlign=middle;whiteSpace=wrap;rounded=0;" vertex="1" parent="1">
          <mxGeometry x="230" y="470" width="40" height="20" as="geometry" />
        </mxCell>
        <mxCell id="XCGxaM9_9Gl26f5sVmlS-10" value="M" style="text;html=1;strokeColor=none;fillColor=none;align=center;verticalAlign=middle;whiteSpace=wrap;rounded=0;" vertex="1" parent="1">
          <mxGeometry x="130" y="390" width="40" height="20" as="geometry" />
        </mxCell>
        <mxCell id="XCGxaM9_9Gl26f5sVmlS-14" value="borrows" style="rhombus;whiteSpace=wrap;html=1;rounded=0;" vertex="1" parent="1">
          <mxGeometry x="370" y="270" width="80" height="80" as="geometry" />
        </mxCell>
        <mxCell id="XCGxaM9_9Gl26f5sVmlS-16" value="" style="endArrow=none;html=1;entryX=0;entryY=0.5;entryDx=0;entryDy=0;exitX=1;exitY=0.5;exitDx=0;exitDy=0;" edge="1" parent="1" source="XCGxaM9_9Gl26f5sVmlS-1" target="XCGxaM9_9Gl26f5sVmlS-14">
          <mxGeometry width="50" height="50" relative="1" as="geometry">
            <mxPoint x="240" y="340" as="sourcePoint" />
            <mxPoint x="290" y="290" as="targetPoint" />
          </mxGeometry>
        </mxCell>
        <mxCell id="XCGxaM9_9Gl26f5sVmlS-17" value="" style="endArrow=none;html=1;exitX=1;exitY=0.5;exitDx=0;exitDy=0;entryX=0;entryY=0.5;entryDx=0;entryDy=0;" edge="1" parent="1" source="XCGxaM9_9Gl26f5sVmlS-14" target="XCGxaM9_9Gl26f5sVmlS-2">
          <mxGeometry width="50" height="50" relative="1" as="geometry">
            <mxPoint x="375" y="350" as="sourcePoint" />
            <mxPoint x="425" y="300" as="targetPoint" />
          </mxGeometry>
        </mxCell>
        <mxCell id="XCGxaM9_9Gl26f5sVmlS-18" value="M" style="text;html=1;strokeColor=none;fillColor=none;align=center;verticalAlign=middle;whiteSpace=wrap;rounded=0;" vertex="1" parent="1">
          <mxGeometry x="240" y="290" width="40" height="20" as="geometry" />
        </mxCell>
        <mxCell id="XCGxaM9_9Gl26f5sVmlS-19" value="1" style="text;html=1;strokeColor=none;fillColor=none;align=center;verticalAlign=middle;whiteSpace=wrap;rounded=0;" vertex="1" parent="1">
          <mxGeometry x="480" y="290" width="40" height="20" as="geometry" />
        </mxCell>
        <mxCell id="XCGxaM9_9Gl26f5sVmlS-20" value="Available" style="ellipse;whiteSpace=wrap;html=1;rounded=0;" vertex="1" parent="1">
          <mxGeometry x="140" y="200" width="60" height="30" as="geometry" />
        </mxCell>
        <mxCell id="XCGxaM9_9Gl26f5sVmlS-23" value="Book Id" style="ellipse;whiteSpace=wrap;html=1;" vertex="1" parent="1">
          <mxGeometry x="50" y="210" width="70" height="30" as="geometry" />
        </mxCell>
        <mxCell id="XCGxaM9_9Gl26f5sVmlS-25" value="Title" style="ellipse;whiteSpace=wrap;html=1;rounded=0;" vertex="1" parent="1">
          <mxGeometry x="230" y="230" width="70" height="30" as="geometry" />
        </mxCell>
        <mxCell id="XCGxaM9_9Gl26f5sVmlS-26" value="Price" style="ellipse;whiteSpace=wrap;html=1;" vertex="1" parent="1">
          <mxGeometry x="-20" y="240" width="70" height="30" as="geometry" />
        </mxCell>
        <mxCell id="XCGxaM9_9Gl26f5sVmlS-27" value="Customer Id" style="ellipse;whiteSpace=wrap;html=1;" vertex="1" parent="1">
          <mxGeometry x="500" y="220" width="60" height="40" as="geometry" />
        </mxCell>
        <mxCell id="XCGxaM9_9Gl26f5sVmlS-28" value="Author" style="ellipse;whiteSpace=wrap;html=1;" vertex="1" parent="1">
          <mxGeometry x="-50" y="290" width="60" height="40" as="geometry" />
        </mxCell>
        <mxCell id="XCGxaM9_9Gl26f5sVmlS-29" value="" style="endArrow=none;html=1;" edge="1" parent="1" source="XCGxaM9_9Gl26f5sVmlS-28">
          <mxGeometry width="50" height="50" relative="1" as="geometry">
            <mxPoint x="10" y="360" as="sourcePoint" />
            <mxPoint x="80.71067811865476" y="310" as="targetPoint" />
          </mxGeometry>
        </mxCell>
        <mxCell id="XCGxaM9_9Gl26f5sVmlS-30" value="" style="endArrow=none;html=1;entryX=0;entryY=0;entryDx=0;entryDy=0;" edge="1" parent="1" source="XCGxaM9_9Gl26f5sVmlS-26" target="XCGxaM9_9Gl26f5sVmlS-1">
          <mxGeometry width="50" height="50" relative="1" as="geometry">
            <mxPoint x="40" y="300" as="sourcePoint" />
            <mxPoint x="90" y="250" as="targetPoint" />
          </mxGeometry>
        </mxCell>
        <mxCell id="XCGxaM9_9Gl26f5sVmlS-31" value="" style="endArrow=none;html=1;exitX=0.5;exitY=1;exitDx=0;exitDy=0;entryX=0.5;entryY=0;entryDx=0;entryDy=0;" edge="1" parent="1" source="XCGxaM9_9Gl26f5sVmlS-23" target="XCGxaM9_9Gl26f5sVmlS-1">
          <mxGeometry width="50" height="50" relative="1" as="geometry">
            <mxPoint x="90" y="290" as="sourcePoint" />
            <mxPoint x="140" y="240" as="targetPoint" />
          </mxGeometry>
        </mxCell>
        <mxCell id="XCGxaM9_9Gl26f5sVmlS-32" value="" style="endArrow=none;html=1;entryX=0.5;entryY=1;entryDx=0;entryDy=0;exitX=0.567;exitY=0.033;exitDx=0;exitDy=0;exitPerimeter=0;" edge="1" parent="1" source="XCGxaM9_9Gl26f5sVmlS-1" target="XCGxaM9_9Gl26f5sVmlS-20">
          <mxGeometry width="50" height="50" relative="1" as="geometry">
            <mxPoint x="140" y="276" as="sourcePoint" />
            <mxPoint x="370" y="380" as="targetPoint" />
            <Array as="points" />
          </mxGeometry>
        </mxCell>
        <mxCell id="XCGxaM9_9Gl26f5sVmlS-33" value="" style="endArrow=none;html=1;entryX=0.5;entryY=1;entryDx=0;entryDy=0;exitX=0.608;exitY=0.017;exitDx=0;exitDy=0;exitPerimeter=0;" edge="1" parent="1" source="XCGxaM9_9Gl26f5sVmlS-1" target="XCGxaM9_9Gl26f5sVmlS-25">
          <mxGeometry width="50" height="50" relative="1" as="geometry">
            <mxPoint x="320" y="430" as="sourcePoint" />
            <mxPoint x="370" y="380" as="targetPoint" />
          </mxGeometry>
        </mxCell>
        <mxCell id="XCGxaM9_9Gl26f5sVmlS-34" value="Name_Cus" style="ellipse;whiteSpace=wrap;html=1;" vertex="1" parent="1">
          <mxGeometry x="700" y="210" width="70" height="40" as="geometry" />
        </mxCell>
        <mxCell id="XCGxaM9_9Gl26f5sVmlS-35" value="Address_C" style="ellipse;whiteSpace=wrap;html=1;" vertex="1" parent="1">
          <mxGeometry x="585" y="195" width="70" height="40" as="geometry" />
        </mxCell>
        <mxCell id="XCGxaM9_9Gl26f5sVmlS-36" value="" style="endArrow=none;html=1;exitX=0.767;exitY=1.025;exitDx=0;exitDy=0;exitPerimeter=0;" edge="1" parent="1" source="XCGxaM9_9Gl26f5sVmlS-27" target="XCGxaM9_9Gl26f5sVmlS-2">
          <mxGeometry width="50" height="50" relative="1" as="geometry">
            <mxPoint x="550" y="300" as="sourcePoint" />
            <mxPoint x="600" y="250" as="targetPoint" />
          </mxGeometry>
        </mxCell>
        <mxCell id="XCGxaM9_9Gl26f5sVmlS-37" value="" style="endArrow=none;html=1;entryX=0.5;entryY=1;entryDx=0;entryDy=0;exitX=0.5;exitY=0;exitDx=0;exitDy=0;" edge="1" parent="1" source="XCGxaM9_9Gl26f5sVmlS-2" target="XCGxaM9_9Gl26f5sVmlS-35">
          <mxGeometry width="50" height="50" relative="1" as="geometry">
            <mxPoint x="320" y="430" as="sourcePoint" />
            <mxPoint x="370" y="380" as="targetPoint" />
          </mxGeometry>
        </mxCell>
        <mxCell id="XCGxaM9_9Gl26f5sVmlS-39" value="" style="endArrow=none;html=1;exitX=1;exitY=0;exitDx=0;exitDy=0;entryX=0.5;entryY=1;entryDx=0;entryDy=0;" edge="1" parent="1" source="XCGxaM9_9Gl26f5sVmlS-2" target="XCGxaM9_9Gl26f5sVmlS-34">
          <mxGeometry width="50" height="50" relative="1" as="geometry">
            <mxPoint x="700" y="310" as="sourcePoint" />
            <mxPoint x="750" y="260" as="targetPoint" />
          </mxGeometry>
        </mxCell>
        <mxCell id="XCGxaM9_9Gl26f5sVmlS-40" value="Name_L" style="ellipse;whiteSpace=wrap;html=1;" vertex="1" parent="1">
          <mxGeometry x="500" y="480" width="70" height="40" as="geometry" />
        </mxCell>
        <mxCell id="XCGxaM9_9Gl26f5sVmlS-41" value="Librarian Id" style="ellipse;whiteSpace=wrap;html=1;" vertex="1" parent="1">
          <mxGeometry x="360" y="400" width="60" height="40" as="geometry" />
        </mxCell>
        <mxCell id="XCGxaM9_9Gl26f5sVmlS-42" value="Address_L" style="ellipse;whiteSpace=wrap;html=1;" vertex="1" parent="1">
          <mxGeometry x="347.5" y="570" width="85" height="40" as="geometry" />
        </mxCell>
        <mxCell id="XCGxaM9_9Gl26f5sVmlS-43" value="" style="endArrow=none;html=1;entryX=0.5;entryY=1;entryDx=0;entryDy=0;exitX=0.5;exitY=0;exitDx=0;exitDy=0;" edge="1" parent="1" source="XCGxaM9_9Gl26f5sVmlS-42" target="XCGxaM9_9Gl26f5sVmlS-3">
          <mxGeometry width="50" height="50" relative="1" as="geometry">
            <mxPoint x="390" y="560" as="sourcePoint" />
            <mxPoint x="430" y="530" as="targetPoint" />
          </mxGeometry>
        </mxCell>
        <mxCell id="XCGxaM9_9Gl26f5sVmlS-44" value="" style="endArrow=none;html=1;entryX=0.5;entryY=0;entryDx=0;entryDy=0;exitX=0.5;exitY=1;exitDx=0;exitDy=0;" edge="1" parent="1" source="XCGxaM9_9Gl26f5sVmlS-41" target="XCGxaM9_9Gl26f5sVmlS-3">
          <mxGeometry width="50" height="50" relative="1" as="geometry">
            <mxPoint x="320" y="430" as="sourcePoint" />
            <mxPoint x="370" y="380" as="targetPoint" />
          </mxGeometry>
        </mxCell>
        <mxCell id="XCGxaM9_9Gl26f5sVmlS-45" value="" style="endArrow=none;html=1;exitX=0;exitY=0.5;exitDx=0;exitDy=0;entryX=1;entryY=0.5;entryDx=0;entryDy=0;" edge="1" parent="1" source="XCGxaM9_9Gl26f5sVmlS-40" target="XCGxaM9_9Gl26f5sVmlS-3">
          <mxGeometry width="50" height="50" relative="1" as="geometry">
            <mxPoint x="320" y="430" as="sourcePoint" />
            <mxPoint x="370" y="380" as="targetPoint" />
          </mxGeometry>
        </mxCell>
      </root>
    </mxGraphModel>
  </diagram>
</mxfile>
